<svg width="250" height="44" viewBox="0 0 250 44" fill="none" xmlns="http://www.w3.org/2000/svg">
<path d="M241.556 25.2404C242.665 25.2404 243.764 25.0187 244.789 24.5881C245.814 24.1575 246.745 23.5263 247.529 22.7308C248.314 21.9352 248.935 20.9908 249.359 19.9515C249.783 18.9122 250.001 17.7984 250 16.6739C250 14.4041 249.11 12.2272 247.527 10.6222C245.943 9.01722 243.795 8.1156 241.556 8.1156C240.446 8.11452 239.348 8.33503 238.322 8.76464C237.297 9.19424 236.365 9.82446 235.58 10.6193C234.795 11.4141 234.172 12.3579 233.748 13.3968C233.323 14.4357 233.104 15.5493 233.104 16.6739C233.104 18.9458 233.995 21.1247 235.58 22.7313C237.165 24.3378 239.314 25.2404 241.556 25.2404Z" fill="#505FFF"/>
<path d="M221.022 25.9772C219.912 25.9772 218.814 26.1988 217.789 26.6294C216.764 27.06 215.832 27.6911 215.048 28.4867C214.264 29.2823 213.642 30.2267 213.218 31.266C212.795 32.3053 212.577 33.4191 212.578 34.5437C212.578 36.8135 213.468 38.9903 215.051 40.5952C216.635 42.2002 218.782 43.1019 221.022 43.1019C222.131 43.103 223.23 42.8825 224.256 42.4529C225.281 42.0233 226.213 41.393 226.998 40.5982C227.783 39.8034 228.405 38.8595 228.83 37.8207C229.255 36.7818 229.474 35.6683 229.474 34.5437C229.474 32.2717 228.583 30.0927 226.998 28.4862C225.413 26.8797 223.263 25.9772 221.022 25.9772Z" fill="#505FFF"/>
<path d="M236.331 26.2985C230.996 28.622 228.173 34.0629 230.025 38.4371C231.877 42.8113 237.718 44.4817 243.078 42.1581C248.438 39.8346 251.236 34.3937 249.384 30.0112C247.532 25.6287 241.675 23.9749 236.331 26.2985Z" fill="#505FFF"/>
<path d="M226.211 24.9185C231.554 22.595 234.369 17.154 232.517 12.7798C230.665 8.40557 224.832 6.73526 219.464 9.05881C214.096 11.3824 211.306 16.8233 213.158 21.2058C215.01 25.5883 220.875 27.2255 226.211 24.9185Z" fill="#505FFF"/>
<path d="M30.2586 14.3669H24.6539V27.0182H6.38783L20.7951 0.5H14.6765L0.057107 27.4151L0 27.5722V32.3764H24.6539V43.0102H30.2586V32.3516H36.0019V26.9934L30.2586 27.01V14.3669Z" fill="white"/>
<path d="M162.567 7.32915C152.499 7.32915 144.904 15.1764 144.904 25.5786C144.904 35.9808 152.499 43.8279 162.567 43.8279C165.083 43.8906 167.583 43.4065 169.899 42.4081C172.216 41.4097 174.294 39.9202 175.995 38.0397C177.522 36.3378 178.72 34.3603 179.527 32.2101L179.585 32.0696H173.874V32.1274C173.177 33.2968 172.302 34.3463 171.28 35.2365C168.867 37.3291 165.774 38.4399 162.599 38.3539C156.358 38.3539 151.472 33.8557 150.664 27.3977H180.254V25.1981C180.303 22.833 179.878 20.4822 179.006 18.2879C178.134 16.0936 176.832 14.1013 175.179 12.4312C173.526 10.7611 171.556 9.44789 169.388 8.57099C167.221 7.69409 164.9 7.27163 162.567 7.32915ZM150.778 22.3371C151.3 19.5825 152.774 17.1066 154.934 15.3533C157.095 13.6001 159.8 12.6843 162.567 12.7701C167.461 12.7701 173.172 15.7634 174.151 22.3371H150.778Z" fill="white"/>
<path d="M191.487 0.515869H185.776V8.19767H181.297V13.6468H185.776V32.4006C185.776 39.4457 189.611 43.332 196.561 43.332H204.124V37.8829H196.561C193.2 37.8829 191.495 36.0389 191.495 32.4006V13.6468H204.36V8.19767H191.495L191.487 0.515869Z" fill="white"/>
<path d="M96.7869 22.9673C91.0762 21.7683 85.3655 20.5776 85.3655 17.1791C85.3655 15.145 87.7151 12.6147 92.9771 12.6147C96.5749 12.6147 98.859 13.946 100.172 15.2855C100.916 16.0365 101.526 16.9121 101.975 17.8737H107.858C107.316 15.9673 106.422 14.1826 105.222 12.6147C103.011 10.0183 99.4137 7.35571 92.9851 7.35571C84.3374 7.35571 79.8342 11.9119 79.8342 17.1791C79.8342 23.695 85.545 26.2748 91.2557 27.4821C96.9664 28.6893 102.677 29.8718 102.677 33.2703C102.677 36.0817 100.327 38.5375 94.0293 38.5375C92.5477 38.6093 91.0679 38.3653 89.6852 37.8212C88.3024 37.2771 87.0476 36.4451 86.0019 35.3789C85.1323 34.4717 84.45 33.3978 83.995 32.2201H78.1128C78.7036 34.3229 79.6929 36.2889 81.0253 38.0083C83.3014 40.8859 87.3152 43.7965 94.0293 43.7965C103.37 43.7965 108.216 38.8848 108.216 33.2703C108.208 26.8206 102.53 24.158 96.7869 22.9673Z" fill="white"/>
<path d="M129.822 22.9673C124.111 21.7683 118.4 20.5776 118.4 17.1791C118.4 15.145 120.75 12.6147 126.012 12.6147C129.61 12.6147 131.886 13.946 133.207 15.2855C133.948 16.0368 134.555 16.9124 135.002 17.8737H140.884C140.345 15.9677 139.454 14.183 138.257 12.6147C136.038 10.0183 132.44 7.35571 126.02 7.35571C117.364 7.35571 112.869 11.9119 112.869 17.1791C112.869 23.695 118.539 26.2748 124.29 27.4821C130.042 28.6893 135.712 29.8718 135.712 33.2703C135.712 36.0817 133.362 38.5375 127.064 38.5375C125.582 38.6093 124.103 38.3653 122.72 37.8212C121.337 37.2771 120.082 36.4451 119.037 35.3789C118.164 34.474 117.482 33.3995 117.03 32.2201H111.147C111.735 34.3224 112.722 36.2885 114.052 38.0083C116.336 40.8859 120.35 43.7965 127.064 43.7965C136.405 43.7965 141.251 38.8848 141.251 33.2703C141.243 26.8206 135.565 24.158 129.822 22.9673Z" fill="white"/>
<path d="M45.5169 43.2C46.3773 40.4165 48.0843 37.9801 50.3936 36.2394C52.703 34.4988 55.4964 33.543 58.3741 33.509C61.2526 33.5438 64.0467 34.4997 66.3572 36.2401C68.6677 37.9806 70.3765 40.4165 71.2395 43.2H76.3465C75.4393 39.0412 73.1734 35.3146 69.916 32.6238C66.6586 29.933 62.6004 28.4356 58.3986 28.374C54.1968 28.4356 50.1386 29.933 46.8812 32.6238C43.6238 35.3146 41.3579 39.0412 40.4507 43.2H45.5169Z" fill="white"/>
<path d="M45.5144 43.1921L56.4628 12.5147H60.2562L71.237 43.2087H77.4373L66.7092 13.2175C66.0883 11.4772 64.9531 9.97323 63.4581 8.91077C61.9632 7.84831 60.1812 7.27908 58.3553 7.28052C56.5287 7.28089 54.7467 7.85186 53.2519 8.91572C51.757 9.97958 50.622 11.4846 50.0014 13.2258L39.3062 43.2087L45.5144 43.1921Z" fill="white"/>
</svg>
